<mxfile host="app.diagrams.net" modified="2024-04-25T06:49:25.539Z" agent="Mozilla/5.0 (Windows NT 10.0; Win64; x64) AppleWebKit/537.36 (KHTML, like Gecko) Chrome/124.0.0.0 Safari/537.36 Edg/124.0.0.0" etag="IgnRwlfy_Fatl9VoSo-N" version="24.2.5" type="github" pages="3">
  <diagram id="prtHgNgQTEPvFCAcTncT" name="Page-1">
    <mxGraphModel dx="1605" dy="331" grid="1" gridSize="10" guides="1" tooltips="1" connect="1" arrows="1" fold="1" page="1" pageScale="1" pageWidth="827" pageHeight="1169" math="0" shadow="0">
      <root>
        <mxCell id="0" />
        <mxCell id="1" parent="0" />
        <mxCell id="906hW7KmR7PjZ_wDBqUE-54" value="" style="rounded=0;whiteSpace=wrap;html=1;" parent="1" vertex="1">
          <mxGeometry x="220" y="730" width="660" height="390" as="geometry" />
        </mxCell>
        <mxCell id="906hW7KmR7PjZ_wDBqUE-55" value="" style="rounded=0;whiteSpace=wrap;html=1;" parent="1" vertex="1">
          <mxGeometry x="220" y="730" width="660" height="90" as="geometry" />
        </mxCell>
        <mxCell id="906hW7KmR7PjZ_wDBqUE-61" value="" style="rounded=0;whiteSpace=wrap;html=1;" parent="1" vertex="1">
          <mxGeometry x="1000" y="670" width="660" height="430" as="geometry" />
        </mxCell>
        <mxCell id="906hW7KmR7PjZ_wDBqUE-62" value="" style="rounded=0;whiteSpace=wrap;html=1;" parent="1" vertex="1">
          <mxGeometry x="1000" y="670" width="660" height="130" as="geometry" />
        </mxCell>
        <mxCell id="906hW7KmR7PjZ_wDBqUE-63" value="" style="rounded=0;whiteSpace=wrap;html=1;" parent="1" vertex="1">
          <mxGeometry x="1000" y="950" width="660" height="150" as="geometry" />
        </mxCell>
        <mxCell id="906hW7KmR7PjZ_wDBqUE-95" value="&lt;span style=&quot;color: rgb(0, 0, 0); font-family: Helvetica; font-style: normal; font-variant-ligatures: normal; font-variant-caps: normal; font-weight: 400; letter-spacing: normal; orphans: 2; text-align: center; text-indent: 0px; text-transform: none; widows: 2; word-spacing: 0px; -webkit-text-stroke-width: 0px; white-space: normal; background-color: rgb(251, 251, 251); text-decoration-thickness: initial; text-decoration-style: initial; text-decoration-color: initial; float: none; display: inline !important;&quot;&gt;&lt;font style=&quot;font-size: 18px;&quot;&gt;数据分析层&lt;/font&gt;&lt;/span&gt;" style="text;whiteSpace=wrap;html=1;" parent="1" vertex="1">
          <mxGeometry x="230" y="830" width="100" height="40" as="geometry" />
        </mxCell>
        <mxCell id="906hW7KmR7PjZ_wDBqUE-66" value="" style="swimlane;startSize=0;" parent="1" vertex="1">
          <mxGeometry x="-40" y="30" width="1530" height="950" as="geometry" />
        </mxCell>
        <mxCell id="906hW7KmR7PjZ_wDBqUE-68" value="&lt;font style=&quot;font-size: 36px;&quot;&gt;基于Flask的前后端分离架构&lt;/font&gt;" style="text;html=1;align=center;verticalAlign=middle;resizable=0;points=[];autosize=1;strokeColor=none;fillColor=none;" parent="906hW7KmR7PjZ_wDBqUE-66" vertex="1">
          <mxGeometry x="550" width="470" height="60" as="geometry" />
        </mxCell>
        <mxCell id="906hW7KmR7PjZ_wDBqUE-71" value="数据层" style="rounded=0;whiteSpace=wrap;html=1;" parent="906hW7KmR7PjZ_wDBqUE-66" vertex="1">
          <mxGeometry x="260" y="940" width="80" height="30" as="geometry" />
        </mxCell>
        <mxCell id="906hW7KmR7PjZ_wDBqUE-56" value="" style="rounded=0;whiteSpace=wrap;html=1;" parent="906hW7KmR7PjZ_wDBqUE-66" vertex="1">
          <mxGeometry x="260" y="940" width="660" height="150" as="geometry" />
        </mxCell>
        <mxCell id="906hW7KmR7PjZ_wDBqUE-72" value="&lt;span style=&quot;color: rgb(0, 0, 0); font-family: Helvetica; font-style: normal; font-variant-ligatures: normal; font-variant-caps: normal; font-weight: 400; letter-spacing: normal; orphans: 2; text-align: center; text-indent: 0px; text-transform: none; widows: 2; word-spacing: 0px; -webkit-text-stroke-width: 0px; white-space: normal; background-color: rgb(251, 251, 251); text-decoration-thickness: initial; text-decoration-style: initial; text-decoration-color: initial; float: none; display: inline !important;&quot;&gt;&lt;font style=&quot;font-size: 18px;&quot;&gt;数据层&lt;/font&gt;&lt;/span&gt;" style="text;whiteSpace=wrap;html=1;" parent="906hW7KmR7PjZ_wDBqUE-66" vertex="1">
          <mxGeometry x="270" y="950" width="70" height="40" as="geometry" />
        </mxCell>
        <mxCell id="906hW7KmR7PjZ_wDBqUE-83" style="edgeStyle=orthogonalEdgeStyle;rounded=0;orthogonalLoop=1;jettySize=auto;html=1;entryX=0;entryY=0.5;entryDx=0;entryDy=0;" parent="906hW7KmR7PjZ_wDBqUE-66" source="906hW7KmR7PjZ_wDBqUE-74" target="906hW7KmR7PjZ_wDBqUE-81" edge="1">
          <mxGeometry relative="1" as="geometry" />
        </mxCell>
        <mxCell id="906hW7KmR7PjZ_wDBqUE-74" value="爬虫调度器spider" style="rounded=0;whiteSpace=wrap;html=1;" parent="906hW7KmR7PjZ_wDBqUE-66" vertex="1">
          <mxGeometry x="330" y="990" width="100" height="50" as="geometry" />
        </mxCell>
        <mxCell id="906hW7KmR7PjZ_wDBqUE-75" value="" style="rounded=0;whiteSpace=wrap;html=1;" parent="906hW7KmR7PjZ_wDBqUE-66" vertex="1">
          <mxGeometry x="260" y="700" width="660" height="90" as="geometry" />
        </mxCell>
        <mxCell id="906hW7KmR7PjZ_wDBqUE-86" style="edgeStyle=orthogonalEdgeStyle;rounded=0;orthogonalLoop=1;jettySize=auto;html=1;exitX=0.5;exitY=1;exitDx=0;exitDy=0;entryX=0.5;entryY=0;entryDx=0;entryDy=0;" parent="906hW7KmR7PjZ_wDBqUE-66" source="906hW7KmR7PjZ_wDBqUE-77" target="906hW7KmR7PjZ_wDBqUE-78" edge="1">
          <mxGeometry relative="1" as="geometry" />
        </mxCell>
        <mxCell id="906hW7KmR7PjZ_wDBqUE-87" style="edgeStyle=orthogonalEdgeStyle;rounded=0;orthogonalLoop=1;jettySize=auto;html=1;exitX=1;exitY=0.5;exitDx=0;exitDy=0;entryX=0.5;entryY=1;entryDx=0;entryDy=0;" parent="906hW7KmR7PjZ_wDBqUE-66" source="906hW7KmR7PjZ_wDBqUE-78" target="906hW7KmR7PjZ_wDBqUE-79" edge="1">
          <mxGeometry relative="1" as="geometry" />
        </mxCell>
        <mxCell id="906hW7KmR7PjZ_wDBqUE-78" value="&lt;span style=&quot;--tw-border-spacing-x: 0; --tw-border-spacing-y: 0; --tw-translate-x: 0; --tw-translate-y: 0; --tw-rotate: 0; --tw-skew-x: 0; --tw-skew-y: 0; --tw-scale-x: 1; --tw-scale-y: 1; --tw-pan-x: ; --tw-pan-y: ; --tw-pinch-zoom: ; --tw-scroll-snap-strictness: proximity; --tw-gradient-from-position: ; --tw-gradient-via-position: ; --tw-gradient-to-position: ; --tw-ordinal: ; --tw-slashed-zero: ; --tw-numeric-figure: ; --tw-numeric-spacing: ; --tw-numeric-fraction: ; --tw-ring-inset: ; --tw-ring-offset-width: 0px; --tw-ring-offset-color: #fff; --tw-ring-color: rgba(59,130,246,.5); --tw-ring-offset-shadow: 0 0 #0000; --tw-ring-shadow: 0 0 #0000; --tw-shadow: 0 0 #0000; --tw-shadow-colored: 0 0 #0000; --tw-blur: ; --tw-brightness: ; --tw-contrast: ; --tw-grayscale: ; --tw-hue-rotate: ; --tw-invert: ; --tw-saturate: ; --tw-sepia: ; --tw-drop-shadow: ; --tw-backdrop-blur: ; --tw-backdrop-brightness: ; --tw-backdrop-contrast: ; --tw-backdrop-grayscale: ; --tw-backdrop-hue-rotate: ; --tw-backdrop-invert: ; --tw-backdrop-opacity: ; --tw-backdrop-saturate: ; --tw-backdrop-sepia: ; -webkit-font-smoothing: antialiased; box-sizing: border-box; color: rgb(46, 50, 56); text-align: left; background-color: rgb(247, 247, 250);&quot;&gt;&lt;font style=&quot;font-size: 12px;&quot; face=&quot;Helvetica&quot;&gt;网页下载器&lt;/font&gt;&lt;/span&gt;" style="rounded=0;whiteSpace=wrap;html=1;" parent="906hW7KmR7PjZ_wDBqUE-66" vertex="1">
          <mxGeometry x="490" y="1030" width="100" height="40" as="geometry" />
        </mxCell>
        <mxCell id="906hW7KmR7PjZ_wDBqUE-84" style="edgeStyle=orthogonalEdgeStyle;rounded=0;orthogonalLoop=1;jettySize=auto;html=1;exitX=1;exitY=0.5;exitDx=0;exitDy=0;" parent="906hW7KmR7PjZ_wDBqUE-66" source="906hW7KmR7PjZ_wDBqUE-79" target="906hW7KmR7PjZ_wDBqUE-82" edge="1">
          <mxGeometry relative="1" as="geometry" />
        </mxCell>
        <mxCell id="906hW7KmR7PjZ_wDBqUE-81" value="" style="swimlane;startSize=0;" parent="906hW7KmR7PjZ_wDBqUE-66" vertex="1">
          <mxGeometry x="460" y="950" width="280" height="130" as="geometry" />
        </mxCell>
        <mxCell id="906hW7KmR7PjZ_wDBqUE-77" value="URL管理器" style="rounded=0;whiteSpace=wrap;html=1;" parent="906hW7KmR7PjZ_wDBqUE-81" vertex="1">
          <mxGeometry x="30" y="10" width="100" height="40" as="geometry" />
        </mxCell>
        <mxCell id="906hW7KmR7PjZ_wDBqUE-79" value="&lt;span style=&quot;--tw-border-spacing-x: 0; --tw-border-spacing-y: 0; --tw-translate-x: 0; --tw-translate-y: 0; --tw-rotate: 0; --tw-skew-x: 0; --tw-skew-y: 0; --tw-scale-x: 1; --tw-scale-y: 1; --tw-pan-x: ; --tw-pan-y: ; --tw-pinch-zoom: ; --tw-scroll-snap-strictness: proximity; --tw-gradient-from-position: ; --tw-gradient-via-position: ; --tw-gradient-to-position: ; --tw-ordinal: ; --tw-slashed-zero: ; --tw-numeric-figure: ; --tw-numeric-spacing: ; --tw-numeric-fraction: ; --tw-ring-inset: ; --tw-ring-offset-width: 0px; --tw-ring-offset-color: #fff; --tw-ring-color: rgba(59,130,246,.5); --tw-ring-offset-shadow: 0 0 #0000; --tw-ring-shadow: 0 0 #0000; --tw-shadow: 0 0 #0000; --tw-shadow-colored: 0 0 #0000; --tw-blur: ; --tw-brightness: ; --tw-contrast: ; --tw-grayscale: ; --tw-hue-rotate: ; --tw-invert: ; --tw-saturate: ; --tw-sepia: ; --tw-drop-shadow: ; --tw-backdrop-blur: ; --tw-backdrop-brightness: ; --tw-backdrop-contrast: ; --tw-backdrop-grayscale: ; --tw-backdrop-hue-rotate: ; --tw-backdrop-invert: ; --tw-backdrop-opacity: ; --tw-backdrop-saturate: ; --tw-backdrop-sepia: ; -webkit-font-smoothing: antialiased; box-sizing: border-box; color: rgb(46, 50, 56); text-align: left; background-color: rgb(247, 247, 250);&quot;&gt;&lt;font style=&quot;font-size: 12px;&quot; face=&quot;Helvetica&quot;&gt;网页数据解析&lt;/font&gt;&lt;/span&gt;" style="rounded=0;whiteSpace=wrap;html=1;" parent="906hW7KmR7PjZ_wDBqUE-81" vertex="1">
          <mxGeometry x="150" y="40" width="100" height="40" as="geometry" />
        </mxCell>
        <mxCell id="906hW7KmR7PjZ_wDBqUE-88" style="rounded=0;orthogonalLoop=1;jettySize=auto;html=1;exitX=0.5;exitY=0;exitDx=0;exitDy=0;entryX=1;entryY=0.25;entryDx=0;entryDy=0;edgeStyle=orthogonalEdgeStyle;" parent="906hW7KmR7PjZ_wDBqUE-81" source="906hW7KmR7PjZ_wDBqUE-79" target="906hW7KmR7PjZ_wDBqUE-77" edge="1">
          <mxGeometry relative="1" as="geometry" />
        </mxCell>
        <mxCell id="906hW7KmR7PjZ_wDBqUE-238" value="&amp;nbsp;" style="edgeLabel;html=1;align=center;verticalAlign=middle;resizable=0;points=[];" parent="906hW7KmR7PjZ_wDBqUE-88" vertex="1" connectable="0">
          <mxGeometry x="0.6041" y="-2" relative="1" as="geometry">
            <mxPoint as="offset" />
          </mxGeometry>
        </mxCell>
        <mxCell id="906hW7KmR7PjZ_wDBqUE-239" value="&amp;nbsp;" style="edgeLabel;html=1;align=center;verticalAlign=middle;resizable=0;points=[];" parent="906hW7KmR7PjZ_wDBqUE-88" vertex="1" connectable="0">
          <mxGeometry x="0.0742" y="3" relative="1" as="geometry">
            <mxPoint as="offset" />
          </mxGeometry>
        </mxCell>
        <mxCell id="906hW7KmR7PjZ_wDBqUE-240" value="&amp;nbsp;" style="edgeLabel;html=1;align=center;verticalAlign=middle;resizable=0;points=[];" parent="906hW7KmR7PjZ_wDBqUE-88" vertex="1" connectable="0">
          <mxGeometry x="-0.2335" y="1" relative="1" as="geometry">
            <mxPoint as="offset" />
          </mxGeometry>
        </mxCell>
        <mxCell id="906hW7KmR7PjZ_wDBqUE-241" value="&amp;nbsp;" style="edgeLabel;html=1;align=center;verticalAlign=middle;resizable=0;points=[];" parent="906hW7KmR7PjZ_wDBqUE-88" vertex="1" connectable="0">
          <mxGeometry x="0.3135" y="-2" relative="1" as="geometry">
            <mxPoint as="offset" />
          </mxGeometry>
        </mxCell>
        <mxCell id="906hW7KmR7PjZ_wDBqUE-82" value="数据获取" style="rounded=0;whiteSpace=wrap;html=1;" parent="906hW7KmR7PjZ_wDBqUE-66" vertex="1">
          <mxGeometry x="780" y="985" width="100" height="50" as="geometry" />
        </mxCell>
        <mxCell id="906hW7KmR7PjZ_wDBqUE-107" value="数据分类" style="rounded=0;whiteSpace=wrap;html=1;" parent="906hW7KmR7PjZ_wDBqUE-66" vertex="1">
          <mxGeometry x="430" y="840" width="70" height="20" as="geometry" />
        </mxCell>
        <mxCell id="906hW7KmR7PjZ_wDBqUE-102" value="数据清洗" style="rounded=0;whiteSpace=wrap;html=1;" parent="906hW7KmR7PjZ_wDBqUE-66" vertex="1">
          <mxGeometry x="430" y="810" width="70" height="20" as="geometry" />
        </mxCell>
        <mxCell id="906hW7KmR7PjZ_wDBqUE-109" value="关键词提取" style="rounded=0;whiteSpace=wrap;html=1;" parent="906hW7KmR7PjZ_wDBqUE-66" vertex="1">
          <mxGeometry x="430" y="900" width="70" height="20" as="geometry" />
        </mxCell>
        <mxCell id="906hW7KmR7PjZ_wDBqUE-108" value="中文分词" style="rounded=0;whiteSpace=wrap;html=1;" parent="906hW7KmR7PjZ_wDBqUE-66" vertex="1">
          <mxGeometry x="430" y="870" width="70" height="20" as="geometry" />
        </mxCell>
        <mxCell id="906hW7KmR7PjZ_wDBqUE-122" value="&lt;div style=&quot;text-align: center;&quot;&gt;&lt;span style=&quot;font-size: 18px;&quot;&gt;结果展示层&lt;/span&gt;&lt;/div&gt;" style="text;whiteSpace=wrap;html=1;" parent="906hW7KmR7PjZ_wDBqUE-66" vertex="1">
          <mxGeometry x="270" y="700" width="100" height="40" as="geometry" />
        </mxCell>
        <mxCell id="906hW7KmR7PjZ_wDBqUE-127" value="&lt;span style=&quot;font-size: 10px;&quot;&gt;观众点赞占比图&lt;/span&gt;" style="rounded=0;whiteSpace=wrap;html=1;" parent="906hW7KmR7PjZ_wDBqUE-66" vertex="1">
          <mxGeometry x="670" y="710" width="90" height="20" as="geometry" />
        </mxCell>
        <mxCell id="906hW7KmR7PjZ_wDBqUE-128" value="&lt;span style=&quot;font-size: 10px;&quot;&gt;标题词云图&lt;/span&gt;" style="rounded=0;whiteSpace=wrap;html=1;" parent="906hW7KmR7PjZ_wDBqUE-66" vertex="1">
          <mxGeometry x="670" y="732.5" width="90" height="20" as="geometry" />
        </mxCell>
        <mxCell id="906hW7KmR7PjZ_wDBqUE-183" value="&lt;span style=&quot;font-size: 10px;&quot;&gt;关注度趋势图&lt;/span&gt;" style="rounded=0;whiteSpace=wrap;html=1;" parent="906hW7KmR7PjZ_wDBqUE-66" vertex="1">
          <mxGeometry x="670" y="755" width="90" height="20" as="geometry" />
        </mxCell>
        <mxCell id="906hW7KmR7PjZ_wDBqUE-184" value="" style="swimlane;startSize=0;" parent="906hW7KmR7PjZ_wDBqUE-66" vertex="1">
          <mxGeometry x="380" y="710" width="180" height="75" as="geometry">
            <mxRectangle x="200" y="130" width="50" height="40" as="alternateBounds" />
          </mxGeometry>
        </mxCell>
        <mxCell id="906hW7KmR7PjZ_wDBqUE-210" value="微观" style="text;html=1;align=center;verticalAlign=middle;resizable=0;points=[];autosize=1;strokeColor=none;fillColor=none;" parent="906hW7KmR7PjZ_wDBqUE-184" vertex="1">
          <mxGeometry x="-10" y="20" width="50" height="30" as="geometry" />
        </mxCell>
        <mxCell id="906hW7KmR7PjZ_wDBqUE-202" value="" style="swimlane;startSize=0;" parent="906hW7KmR7PjZ_wDBqUE-66" vertex="1">
          <mxGeometry x="630" y="705" width="170" height="75" as="geometry">
            <mxRectangle x="200" y="130" width="50" height="40" as="alternateBounds" />
          </mxGeometry>
        </mxCell>
        <mxCell id="906hW7KmR7PjZ_wDBqUE-211" value="宏观" style="text;html=1;align=center;verticalAlign=middle;resizable=0;points=[];autosize=1;strokeColor=none;fillColor=none;" parent="906hW7KmR7PjZ_wDBqUE-202" vertex="1">
          <mxGeometry x="-10" y="22.5" width="50" height="30" as="geometry" />
        </mxCell>
        <mxCell id="906hW7KmR7PjZ_wDBqUE-219" value="登录判定" style="rounded=0;whiteSpace=wrap;html=1;" parent="906hW7KmR7PjZ_wDBqUE-66" vertex="1">
          <mxGeometry x="1360" y="700" width="110" height="50" as="geometry" />
        </mxCell>
        <mxCell id="906hW7KmR7PjZ_wDBqUE-229" value="数据删除" style="rounded=0;whiteSpace=wrap;html=1;" parent="906hW7KmR7PjZ_wDBqUE-66" vertex="1">
          <mxGeometry x="1451" y="975" width="90" height="40" as="geometry" />
        </mxCell>
        <mxCell id="906hW7KmR7PjZ_wDBqUE-225" value="新冠肺炎数据分析图" style="rounded=0;whiteSpace=wrap;html=1;" parent="906hW7KmR7PjZ_wDBqUE-66" vertex="1">
          <mxGeometry x="1350" y="820" width="130" height="50" as="geometry" />
        </mxCell>
        <mxCell id="906hW7KmR7PjZ_wDBqUE-223" value="&lt;br style=&quot;text-align: center;&quot;&gt;&lt;span style=&quot;text-align: center; font-size: 18px;&quot;&gt;可视化展示层&lt;/span&gt;" style="text;whiteSpace=wrap;html=1;" parent="906hW7KmR7PjZ_wDBqUE-66" vertex="1">
          <mxGeometry x="1050" y="765" width="120" height="60" as="geometry" />
        </mxCell>
        <mxCell id="906hW7KmR7PjZ_wDBqUE-213" value="&lt;br style=&quot;forced-color-adjust: none; color: rgb(0, 0, 0); font-family: Helvetica; font-size: 12px; font-style: normal; font-variant-ligatures: normal; font-variant-caps: normal; font-weight: 400; letter-spacing: normal; orphans: 2; text-align: center; text-indent: 0px; text-transform: none; widows: 2; word-spacing: 0px; -webkit-text-stroke-width: 0px; white-space: normal; background-color: rgb(251, 251, 251); text-decoration-thickness: initial; text-decoration-style: initial; text-decoration-color: initial;&quot;&gt;&lt;span style=&quot;forced-color-adjust: none; color: rgb(0, 0, 0); font-family: Helvetica; font-style: normal; font-variant-ligatures: normal; font-variant-caps: normal; font-weight: 400; letter-spacing: normal; orphans: 2; text-align: center; text-indent: 0px; text-transform: none; widows: 2; word-spacing: 0px; -webkit-text-stroke-width: 0px; white-space: normal; text-decoration-thickness: initial; text-decoration-style: initial; text-decoration-color: initial; font-size: 18px; background-color: rgb(251, 251, 251); float: none; display: inline !important;&quot;&gt;注册登录层&lt;/span&gt;" style="text;whiteSpace=wrap;html=1;" parent="906hW7KmR7PjZ_wDBqUE-66" vertex="1">
          <mxGeometry x="1050" y="672.5" width="120" height="60" as="geometry" />
        </mxCell>
        <mxCell id="906hW7KmR7PjZ_wDBqUE-123" value="&lt;font style=&quot;font-size: 10px;&quot;&gt;评论占比图&lt;/font&gt;" style="rounded=0;whiteSpace=wrap;html=1;" parent="906hW7KmR7PjZ_wDBqUE-66" vertex="1">
          <mxGeometry x="440" y="715" width="60" height="20" as="geometry" />
        </mxCell>
        <mxCell id="906hW7KmR7PjZ_wDBqUE-125" value="&lt;font style=&quot;font-size: 10px;&quot;&gt;情感分布直方图&lt;/font&gt;" style="rounded=0;whiteSpace=wrap;html=1;" parent="906hW7KmR7PjZ_wDBqUE-66" vertex="1">
          <mxGeometry x="420" y="740" width="90" height="15" as="geometry" />
        </mxCell>
        <mxCell id="906hW7KmR7PjZ_wDBqUE-126" value="&lt;span style=&quot;font-size: 10px;&quot;&gt;评论词云图&lt;/span&gt;" style="rounded=0;whiteSpace=wrap;html=1;" parent="906hW7KmR7PjZ_wDBqUE-66" vertex="1">
          <mxGeometry x="432.5" y="760" width="75" height="20" as="geometry" />
        </mxCell>
        <mxCell id="906hW7KmR7PjZ_wDBqUE-121" style="edgeStyle=orthogonalEdgeStyle;rounded=0;orthogonalLoop=1;jettySize=auto;html=1;entryX=0;entryY=0.5;entryDx=0;entryDy=0;" parent="1" source="906hW7KmR7PjZ_wDBqUE-111" target="906hW7KmR7PjZ_wDBqUE-120" edge="1">
          <mxGeometry relative="1" as="geometry">
            <Array as="points">
              <mxPoint x="605" y="895" />
            </Array>
          </mxGeometry>
        </mxCell>
        <mxCell id="906hW7KmR7PjZ_wDBqUE-111" value="" style="swimlane;startSize=0;" parent="1" vertex="1">
          <mxGeometry x="350" y="830" width="140" height="130" as="geometry" />
        </mxCell>
        <mxCell id="906hW7KmR7PjZ_wDBqUE-112" value="可视化处理" style="rounded=0;whiteSpace=wrap;html=1;" parent="1" vertex="1">
          <mxGeometry x="640" y="840" width="70" height="20" as="geometry" />
        </mxCell>
        <mxCell id="906hW7KmR7PjZ_wDBqUE-113" value="统计分析" style="rounded=0;whiteSpace=wrap;html=1;" parent="1" vertex="1">
          <mxGeometry x="640" y="865" width="70" height="20" as="geometry" />
        </mxCell>
        <mxCell id="906hW7KmR7PjZ_wDBqUE-115" value="趋势分析" style="rounded=0;whiteSpace=wrap;html=1;" parent="1" vertex="1">
          <mxGeometry x="640" y="920" width="70" height="20" as="geometry" />
        </mxCell>
        <mxCell id="906hW7KmR7PjZ_wDBqUE-120" value="" style="swimlane;startSize=0;" parent="1" vertex="1">
          <mxGeometry x="610" y="830" width="130" height="130" as="geometry" />
        </mxCell>
        <mxCell id="906hW7KmR7PjZ_wDBqUE-114" value="情感判断" style="rounded=0;whiteSpace=wrap;html=1;" parent="906hW7KmR7PjZ_wDBqUE-120" vertex="1">
          <mxGeometry x="30" y="60" width="70" height="20" as="geometry" />
        </mxCell>
        <mxCell id="906hW7KmR7PjZ_wDBqUE-212" value="&lt;font style=&quot;font-size: 18px;&quot;&gt;前端&lt;/font&gt;" style="rounded=0;whiteSpace=wrap;html=1;" parent="1" vertex="1">
          <mxGeometry x="1000" y="670" width="660" height="40" as="geometry" />
        </mxCell>
        <mxCell id="906hW7KmR7PjZ_wDBqUE-218" value="注册新账号" style="rounded=0;whiteSpace=wrap;html=1;" parent="1" vertex="1">
          <mxGeometry x="1160" y="730" width="110" height="50" as="geometry" />
        </mxCell>
        <mxCell id="906hW7KmR7PjZ_wDBqUE-221" value="异常提示" style="rounded=0;whiteSpace=wrap;html=1;" parent="1" vertex="1">
          <mxGeometry x="1480" y="730" width="110" height="50" as="geometry" />
        </mxCell>
        <mxCell id="906hW7KmR7PjZ_wDBqUE-222" value="&lt;font style=&quot;font-size: 18px;&quot;&gt;反馈处理层&lt;/font&gt;" style="text;whiteSpace=wrap;html=1;" parent="1" vertex="1">
          <mxGeometry x="1010" y="960" width="120" height="60" as="geometry" />
        </mxCell>
        <mxCell id="906hW7KmR7PjZ_wDBqUE-224" value="流感数据分析图" style="rounded=0;whiteSpace=wrap;html=1;" parent="1" vertex="1">
          <mxGeometry x="1150" y="850" width="110" height="50" as="geometry" />
        </mxCell>
        <mxCell id="906hW7KmR7PjZ_wDBqUE-226" value="单纯疱疹数据分析图" style="rounded=0;whiteSpace=wrap;html=1;" parent="1" vertex="1">
          <mxGeometry x="1480" y="850" width="130" height="50" as="geometry" />
        </mxCell>
        <mxCell id="906hW7KmR7PjZ_wDBqUE-228" value="&lt;font style=&quot;font-size: 14px;&quot;&gt;搜索&lt;/font&gt;" style="rounded=0;whiteSpace=wrap;html=1;" parent="1" vertex="1">
          <mxGeometry x="1220" y="1006.25" width="100" height="37.5" as="geometry" />
        </mxCell>
        <mxCell id="906hW7KmR7PjZ_wDBqUE-234" style="edgeStyle=orthogonalEdgeStyle;rounded=0;orthogonalLoop=1;jettySize=auto;html=1;exitX=0.5;exitY=1;exitDx=0;exitDy=0;" parent="1" source="906hW7KmR7PjZ_wDBqUE-66" target="906hW7KmR7PjZ_wDBqUE-66" edge="1">
          <mxGeometry relative="1" as="geometry" />
        </mxCell>
      </root>
    </mxGraphModel>
  </diagram>
  <diagram id="DryVZfimA1vqoWjmOn-x" name="第 2 页">
    <mxGraphModel dx="805" dy="343" grid="1" gridSize="10" guides="1" tooltips="1" connect="1" arrows="1" fold="1" page="1" pageScale="1" pageWidth="827" pageHeight="1169" math="0" shadow="0">
      <root>
        <mxCell id="0" />
        <mxCell id="1" parent="0" />
        <mxCell id="LU7DPNPSSP5gwDBp0oEZ-1" value="管理员" style="shape=umlActor;verticalLabelPosition=bottom;verticalAlign=top;html=1;outlineConnect=0;" vertex="1" parent="1">
          <mxGeometry x="250" y="330" width="30" height="60" as="geometry" />
        </mxCell>
        <mxCell id="LU7DPNPSSP5gwDBp0oEZ-2" value="用户" style="shape=umlActor;verticalLabelPosition=bottom;verticalAlign=top;html=1;outlineConnect=0;" vertex="1" parent="1">
          <mxGeometry x="730" y="390" width="30" height="60" as="geometry" />
        </mxCell>
        <mxCell id="LU7DPNPSSP5gwDBp0oEZ-3" value="" style="swimlane;startSize=0;" vertex="1" parent="1">
          <mxGeometry x="350" y="300" width="340" height="310" as="geometry" />
        </mxCell>
        <mxCell id="LU7DPNPSSP5gwDBp0oEZ-4" value="系统管理" style="ellipse;whiteSpace=wrap;html=1;" vertex="1" parent="LU7DPNPSSP5gwDBp0oEZ-3">
          <mxGeometry x="106" y="10" width="106" height="60" as="geometry" />
        </mxCell>
        <mxCell id="LU7DPNPSSP5gwDBp0oEZ-5" value="网页信息采集" style="ellipse;whiteSpace=wrap;html=1;" vertex="1" parent="LU7DPNPSSP5gwDBp0oEZ-3">
          <mxGeometry x="20" y="60" width="106" height="60" as="geometry" />
        </mxCell>
        <mxCell id="LU7DPNPSSP5gwDBp0oEZ-6" value="数据预处理" style="ellipse;whiteSpace=wrap;html=1;" vertex="1" parent="LU7DPNPSSP5gwDBp0oEZ-3">
          <mxGeometry x="11" y="170" width="106" height="60" as="geometry" />
        </mxCell>
        <mxCell id="LU7DPNPSSP5gwDBp0oEZ-7" value="评论等信息检索" style="ellipse;whiteSpace=wrap;html=1;" vertex="1" parent="LU7DPNPSSP5gwDBp0oEZ-3">
          <mxGeometry x="200" y="90" width="106" height="60" as="geometry" />
        </mxCell>
        <mxCell id="LU7DPNPSSP5gwDBp0oEZ-8" value="用户归档管理" style="ellipse;whiteSpace=wrap;html=1;" vertex="1" parent="LU7DPNPSSP5gwDBp0oEZ-3">
          <mxGeometry x="30" y="240" width="106" height="60" as="geometry" />
        </mxCell>
        <mxCell id="LU7DPNPSSP5gwDBp0oEZ-9" value="流感等可视化结果查看" style="ellipse;whiteSpace=wrap;html=1;" vertex="1" parent="LU7DPNPSSP5gwDBp0oEZ-3">
          <mxGeometry x="212" y="180" width="106" height="60" as="geometry" />
        </mxCell>
        <mxCell id="LU7DPNPSSP5gwDBp0oEZ-16" value="流感等数据可视化" style="ellipse;whiteSpace=wrap;html=1;" vertex="1" parent="LU7DPNPSSP5gwDBp0oEZ-3">
          <mxGeometry x="100" y="120" width="80" height="60" as="geometry" />
        </mxCell>
        <mxCell id="LU7DPNPSSP5gwDBp0oEZ-11" value="" style="endArrow=none;html=1;rounded=0;" edge="1" parent="1" target="LU7DPNPSSP5gwDBp0oEZ-4">
          <mxGeometry width="50" height="50" relative="1" as="geometry">
            <mxPoint x="290" y="350" as="sourcePoint" />
            <mxPoint x="340" y="360" as="targetPoint" />
          </mxGeometry>
        </mxCell>
        <mxCell id="LU7DPNPSSP5gwDBp0oEZ-12" value="" style="endArrow=none;html=1;rounded=0;exitX=0.961;exitY=0.29;exitDx=0;exitDy=0;exitPerimeter=0;" edge="1" parent="1" source="LU7DPNPSSP5gwDBp0oEZ-7">
          <mxGeometry width="50" height="50" relative="1" as="geometry">
            <mxPoint x="650" y="400" as="sourcePoint" />
            <mxPoint x="720" y="400" as="targetPoint" />
          </mxGeometry>
        </mxCell>
        <mxCell id="LU7DPNPSSP5gwDBp0oEZ-15" value="" style="endArrow=none;html=1;rounded=0;" edge="1" parent="1">
          <mxGeometry width="50" height="50" relative="1" as="geometry">
            <mxPoint x="660" y="490" as="sourcePoint" />
            <mxPoint x="710" y="420" as="targetPoint" />
          </mxGeometry>
        </mxCell>
      </root>
    </mxGraphModel>
  </diagram>
  <diagram id="Hcl1Z5xTX1e1AMCgjirD" name="第 3 页">
    <mxGraphModel dx="1167" dy="497" grid="1" gridSize="10" guides="1" tooltips="1" connect="1" arrows="1" fold="1" page="1" pageScale="1" pageWidth="827" pageHeight="1169" math="0" shadow="0">
      <root>
        <mxCell id="0" />
        <mxCell id="1" parent="0" />
        <mxCell id="Klkk9frQtHUaehMb6VEZ-10" value="&lt;p class=&quot;MsoNormal&quot;&gt;&lt;span style=&quot;font-weight: normal;&quot;&gt;&lt;span style=&quot;font-family: 宋体; font-size: 12pt;&quot;&gt;数据&lt;/span&gt;&lt;span style=&quot;font-family: 宋体; font-size: 12pt;&quot;&gt;存储与管理流程图&lt;/span&gt;&lt;/span&gt;&lt;/p&gt;" style="swimlane;whiteSpace=wrap;html=1;startSize=23;" vertex="1" parent="1">
          <mxGeometry x="130" y="60" width="890" height="140" as="geometry" />
        </mxCell>
        <mxCell id="Klkk9frQtHUaehMb6VEZ-11" value="&lt;p class=&quot;MsoNormal&quot;&gt;&lt;span style=&quot;mso-spacerun:&#39;yes&#39;;font-family:宋体;mso-bidi-font-family:&#39;Times New Roman&#39;;&lt;br/&gt;font-weight:normal;font-size:12.0000pt;mso-font-kerning:1.0000pt;&quot;&gt;&lt;font face=&quot;宋体&quot;&gt;数据更新和查询&lt;/font&gt;&lt;/span&gt;&lt;/p&gt;" style="rounded=0;whiteSpace=wrap;html=1;" vertex="1" parent="Klkk9frQtHUaehMb6VEZ-10">
          <mxGeometry x="740" y="50" width="120" height="60" as="geometry" />
        </mxCell>
        <mxCell id="Klkk9frQtHUaehMb6VEZ-2" value="&lt;p class=&quot;MsoNormal&quot;&gt;&lt;span style=&quot;font-family: 宋体; font-size: 12pt;&quot;&gt;建立数据库&lt;/span&gt;&lt;/p&gt;" style="rounded=0;whiteSpace=wrap;html=1;" vertex="1" parent="Klkk9frQtHUaehMb6VEZ-10">
          <mxGeometry x="250" y="50" width="120" height="60" as="geometry" />
        </mxCell>
        <mxCell id="Klkk9frQtHUaehMb6VEZ-3" value="&lt;p class=&quot;MsoNormal&quot;&gt;&lt;span style=&quot;font-family: 宋体; font-size: 12pt;&quot;&gt;数据导入&lt;/span&gt;&lt;/p&gt;" style="rounded=0;whiteSpace=wrap;html=1;" vertex="1" parent="Klkk9frQtHUaehMb6VEZ-10">
          <mxGeometry x="410" y="50" width="120" height="60" as="geometry" />
        </mxCell>
        <mxCell id="Klkk9frQtHUaehMb6VEZ-7" value="" style="edgeStyle=orthogonalEdgeStyle;rounded=0;orthogonalLoop=1;jettySize=auto;html=1;" edge="1" parent="Klkk9frQtHUaehMb6VEZ-10" source="Klkk9frQtHUaehMb6VEZ-2" target="Klkk9frQtHUaehMb6VEZ-3">
          <mxGeometry relative="1" as="geometry" />
        </mxCell>
        <mxCell id="Klkk9frQtHUaehMb6VEZ-4" value="&lt;p class=&quot;MsoNormal&quot;&gt;&lt;span style=&quot;mso-spacerun:&#39;yes&#39;;font-family:宋体;mso-bidi-font-family:&#39;Times New Roman&#39;;&#xa;font-weight:normal;font-size:12.0000pt;mso-font-kerning:1.0000pt;&quot;&gt;&lt;font face=&quot;宋体&quot;&gt;数据查询和索引&lt;/font&gt;&lt;/span&gt;&lt;/p&gt;" style="rounded=0;whiteSpace=wrap;html=1;" vertex="1" parent="Klkk9frQtHUaehMb6VEZ-10">
          <mxGeometry x="570" y="50" width="120" height="60" as="geometry" />
        </mxCell>
        <mxCell id="Klkk9frQtHUaehMb6VEZ-8" value="" style="edgeStyle=orthogonalEdgeStyle;rounded=0;orthogonalLoop=1;jettySize=auto;html=1;" edge="1" parent="Klkk9frQtHUaehMb6VEZ-10" source="Klkk9frQtHUaehMb6VEZ-3" target="Klkk9frQtHUaehMb6VEZ-4">
          <mxGeometry relative="1" as="geometry" />
        </mxCell>
        <mxCell id="Klkk9frQtHUaehMb6VEZ-13" value="" style="edgeStyle=orthogonalEdgeStyle;rounded=0;orthogonalLoop=1;jettySize=auto;html=1;" edge="1" parent="Klkk9frQtHUaehMb6VEZ-10" source="Klkk9frQtHUaehMb6VEZ-4" target="Klkk9frQtHUaehMb6VEZ-11">
          <mxGeometry relative="1" as="geometry" />
        </mxCell>
        <mxCell id="Klkk9frQtHUaehMb6VEZ-1" value="&lt;p class=&quot;MsoNormal&quot;&gt;&lt;span style=&quot;font-family: 宋体; font-size: 12pt;&quot;&gt;选择存储格式&lt;/span&gt;&lt;/p&gt;" style="rounded=0;whiteSpace=wrap;html=1;" vertex="1" parent="Klkk9frQtHUaehMb6VEZ-10">
          <mxGeometry x="70" y="50" width="120" height="60" as="geometry" />
        </mxCell>
        <mxCell id="Klkk9frQtHUaehMb6VEZ-5" style="edgeStyle=orthogonalEdgeStyle;rounded=0;orthogonalLoop=1;jettySize=auto;html=1;" edge="1" parent="Klkk9frQtHUaehMb6VEZ-10" source="Klkk9frQtHUaehMb6VEZ-1" target="Klkk9frQtHUaehMb6VEZ-2">
          <mxGeometry relative="1" as="geometry" />
        </mxCell>
      </root>
    </mxGraphModel>
  </diagram>
</mxfile>
